0
SECTION
2
HEADER
9
$INSUNITS
70
4
9
$ACADVER
1
AC1014
9
$HANDSEED
5
FFFF
0
ENDSEC
0
SECTION
2
TABLES
0
TABLE
2
VPORT
5
8
100
AcDbSymbolTable
0
ENDTAB
0
TABLE
2
LTYPE
5
5
100
AcDbSymbolTable
0
LTYPE
5
14
100
AcDbSymbolTableRecord
100
AcDbLinetypeTableRecord
2
BYBLOCK
70
0
0
LTYPE
5
15
100
AcDbSymbolTableRecord
100
AcDbLinetypeTableRecord
2
BYLAYER
70
0
0
ENDTAB
0
TABLE
2
LAYER
5
2
100
AcDbSymbolTable
70
2
0
LAYER
5
50
100
AcDbSymbolTableRecord
100
AcDbLayerTableRecord
2
0
70
0
6
CONTINUOUS
0
ENDTAB
0
TABLE
2
STYLE
5
3
100
AcDbSymbolTable
70
1
0
STYLE
5
11
100
AcDbSymbolTableRecord
100
AcDbTextStyleTableRecord
2
STANDARD
70
0
0
ENDTAB
0
TABLE
2
VIEW
5
6
100
AcDbSymbolTable
70
0
0
ENDTAB
0
TABLE
2
UCS
5
7
100
AcDbSymbolTable
70
0
0
ENDTAB
0
TABLE
2
APPID
5
9
100
AcDbSymbolTable
70
2
0
APPID
5
12
100
AcDbSymbolTableRecord
100
AcDbRegAppTableRecord
2
ACAD
70
0
0
ENDTAB
0
TABLE
2
DIMSTYLE
5
A
100
AcDbSymbolTable
70
1
0
ENDTAB
0
TABLE
2
BLOCK_RECORD
5
1
100
AcDbSymbolTable
70
1
0
BLOCK_RECORD
5
1F
100
AcDbSymbolTableRecord
100
AcDbBlockTableRecord
2
*MODEL_SPACE
0
BLOCK_RECORD
5
1B
100
AcDbSymbolTableRecord
100
AcDbBlockTableRecord
2
*PAPER_SPACE
0
ENDTAB
0
ENDSEC
0
SECTION
2
BLOCKS
0
BLOCK
5
20
100
AcDbEntity
100
AcDbBlockBegin
2
*MODEL_SPACE
0
ENDBLK
5
21
100
AcDbEntity
100
AcDbBlockEnd
0
BLOCK
5
1C
100
AcDbEntity
100
AcDbBlockBegin
2
*PAPER_SPACE
0
ENDBLK
5
1D
100
AcDbEntity
100
AcDbBlockEnd
0
ENDSEC
0
SECTION
2
ENTITIES
0
LWPOLYLINE
5
100
100
AcDbEntity
8
0
100
AcDbPolyline
90
44
70
1
43
0.0
10
-99.999999999999972
20
-109.99999999999999
10
-99.999999999999972
20
-99.999999999999986
10
-109.99999999999997
20
-99.999999999999986
42
-0.41421356237308637
10
-112.99999999999997
20
-97
10
-112.99999999999997
20
-2.7000000000000002
10
-107.19999999999997
20
-2.7000000000000002
42
0.41421356237309581
10
-104.59999999999997
20
-0.10000000000000067
10
-104.59999999999997
20
5.5511151231257827e-16
42
0.41421356237309481
10
-107.29999999999997
20
2.6999999999999948
10
-112.99999999999997
20
2.6999999999999957
10
-112.99999999999997
20
96.999999999999972
42
-0.41421356237308815
10
-109.99999999999997
20
99.999999999999986
10
-99.999999999999972
20
99.999999999999986
10
-99.999999999999972
20
109.99999999999999
42
-0.41421356237308815
10
-96.999999999999957
20
112.99999999999999
10
-2.7000000000000002
20
112.99999999999999
10
-2.6999999999999957
20
107.29999999999998
42
0.41421356237309481
10
1.0000000007592966e-06
20
104.59999999999999
10
7.5929663605935307e-16
20
104.59999999999999
42
0.41421356237309476
10
2.7000000000000002
20
107.29999999999998
10
2.6999999999999957
20
112.99999999999999
10
96.999999999999957
20
112.99999999999999
42
-0.41421356237308815
10
99.999999999999972
20
109.99999999999999
10
99.999999999999972
20
99.999999999999986
10
109.99999999999997
20
99.999999999999986
42
-0.41421356237308637
10
112.99999999999997
20
97
10
112.99999999999997
20
2.7000000000000002
10
107.29999999999997
20
2.6999999999999935
42
0.41421356237309481
10
104.59999999999997
20
0
10
104.59999999999997
20
1.1777955339452039e-16
42
0.41421356237309481
10
107.29999999999997
20
-2.7000000000000002
10
112.99999999999997
20
-2.6999999999999957
10
112.99999999999997
20
-96.999999999999972
42
-0.41421356237308815
10
109.99999999999997
20
-99.999999999999986
10
99.999999999999972
20
-99.999999999999986
10
99.999999999999972
20
-109.99999999999999
42
-0.41421356237308815
10
96.999999999999957
20
-112.99999999999999
10
2.7000000000000002
20
-112.99999999999999
10
2.7000000000000002
20
-107.29999999999998
42
0.41421356237309481
10
9.9999999840803605e-07
20
-104.59999999999999
10
-1.59196390452822e-15
20
-104.59999999999999
42
0.41421356237309476
10
-2.7000000000000002
20
-107.29999999999998
10
-2.6999999999999957
20
-112.99999999999999
10
-96.999999999999957
20
-112.99999999999999
42
-0.41421356237308815
0
ENDSEC
0
SECTION
2
OBJECTS
0
DICTIONARY
5
C
100
AcDbDictionary
3
ACAD_GROUP
350
D
3
ACAD_MLINESTYLE
350
17
0
DICTIONARY
5
D
100
AcDbDictionary
0
DICTIONARY
5
1A
330
C
100
AcDbDictionary
0
DICTIONARY
5
17
100
AcDbDictionary
0
ENDSEC
0
EOF
