solid ASCII
  facet normal -1.000000e+00 0.000000e+00 0.000000e+00
    outer loop
      vertex   4.000000e+01 2.250000e+01 0.000000e+00
      vertex   4.000000e+01 -2.250000e+01 0.000000e+00
      vertex   4.000000e+01 2.250000e+01 2.500000e+01
    endloop
  endfacet
  facet normal -1.000000e+00 -0.000000e+00 0.000000e+00
    outer loop
      vertex   4.000000e+01 2.250000e+01 2.500000e+01
      vertex   4.000000e+01 -2.250000e+01 0.000000e+00
      vertex   4.000000e+01 -2.250000e+01 2.500000e+01
    endloop
  endfacet
  facet normal 1.000000e+00 0.000000e+00 0.000000e+00
    outer loop
      vertex   -4.000000e+01 -2.250000e+01 0.000000e+00
      vertex   -4.000000e+01 2.250000e+01 0.000000e+00
      vertex   -4.000000e+01 -2.250000e+01 2.500000e+01
    endloop
  endfacet
  facet normal 1.000000e+00 -0.000000e+00 0.000000e+00
    outer loop
      vertex   -4.000000e+01 -2.250000e+01 2.500000e+01
      vertex   -4.000000e+01 2.250000e+01 0.000000e+00
      vertex   -4.000000e+01 2.250000e+01 2.500000e+01
    endloop
  endfacet
  facet normal 0.000000e+00 -1.000000e+00 0.000000e+00
    outer loop
      vertex   -4.000000e+01 2.250000e+01 0.000000e+00
      vertex   4.000000e+01 2.250000e+01 0.000000e+00
      vertex   -4.000000e+01 2.250000e+01 2.500000e+01
    endloop
  endfacet
  facet normal 0.000000e+00 -1.000000e+00 0.000000e+00
    outer loop
      vertex   -4.000000e+01 2.250000e+01 2.500000e+01
      vertex   4.000000e+01 2.250000e+01 0.000000e+00
      vertex   4.000000e+01 2.250000e+01 2.500000e+01
    endloop
  endfacet
  facet normal 0.000000e+00 0.000000e+00 -1.000000e+00
    outer loop
      vertex   -4.000000e+01 2.250000e+01 2.500000e+01
      vertex   4.000000e+01 2.250000e+01 2.500000e+01
      vertex   -4.000000e+01 -2.250000e+01 2.500000e+01
    endloop
  endfacet
  facet normal 0.000000e+00 0.000000e+00 -1.000000e+00
    outer loop
      vertex   -4.000000e+01 -2.250000e+01 2.500000e+01
      vertex   4.000000e+01 2.250000e+01 2.500000e+01
      vertex   4.000000e+01 -2.250000e+01 2.500000e+01
    endloop
  endfacet
  facet normal 0.000000e+00 -1.000000e+00 0.000000e+00
    outer loop
      vertex   -4.000000e+01 -2.250000e+01 0.000000e+00
      vertex   -4.000000e+01 -2.250000e+01 2.500000e+01
      vertex   -4.300000e+01 -2.250000e+01 0.000000e+00
    endloop
  endfacet
  facet normal 0.000000e+00 -1.000000e+00 0.000000e+00
    outer loop
      vertex   -4.300000e+01 -2.250000e+01 0.000000e+00
      vertex   -4.000000e+01 -2.250000e+01 2.500000e+01
      vertex   -4.300000e+01 -2.250000e+01 2.800000e+01
    endloop
  endfacet
  facet normal 0.000000e+00 -1.000000e+00 0.000000e+00
    outer loop
      vertex   -4.300000e+01 -2.250000e+01 2.800000e+01
      vertex   -4.000000e+01 -2.250000e+01 2.500000e+01
      vertex   4.000000e+01 -2.250000e+01 2.500000e+01
    endloop
  endfacet
  facet normal 4.131062e-17 -1.000000e+00 1.142927e-15
    outer loop
      vertex   -4.300000e+01 -2.250000e+01 2.800000e+01
      vertex   4.000000e+01 -2.250000e+01 2.500000e+01
      vertex   4.300000e+01 -2.250000e+01 2.800000e+01
    endloop
  endfacet
  facet normal 1.184238e-15 -1.000000e+00 0.000000e+00
    outer loop
      vertex   4.300000e+01 -2.250000e+01 2.800000e+01
      vertex   4.000000e+01 -2.250000e+01 2.500000e+01
      vertex   4.300000e+01 -2.250000e+01 0.000000e+00
    endloop
  endfacet
  facet normal 1.184238e-15 -1.000000e+00 0.000000e+00
    outer loop
      vertex   4.300000e+01 -2.250000e+01 0.000000e+00
      vertex   4.000000e+01 -2.250000e+01 2.500000e+01
      vertex   4.000000e+01 -2.250000e+01 0.000000e+00
    endloop
  endfacet
  facet normal -8.262125e-17 1.000000e+00 2.537653e-16
    outer loop
      vertex   4.300000e+01 2.550000e+01 0.000000e+00
      vertex   -4.300000e+01 2.550000e+01 0.000000e+00
      vertex   4.300000e+01 2.550000e+01 2.800000e+01
    endloop
  endfacet
  facet normal 0.000000e+00 1.000000e+00 0.000000e+00
    outer loop
      vertex   4.300000e+01 2.550000e+01 2.800000e+01
      vertex   -4.300000e+01 2.550000e+01 0.000000e+00
      vertex   -4.300000e+01 2.550000e+01 2.800000e+01
    endloop
  endfacet
  facet normal 1.000000e+00 0.000000e+00 0.000000e+00
    outer loop
      vertex   4.300000e+01 -2.250000e+01 0.000000e+00
      vertex   4.300000e+01 2.550000e+01 0.000000e+00
      vertex   4.300000e+01 -2.250000e+01 2.800000e+01
    endloop
  endfacet
  facet normal 1.000000e+00 -0.000000e+00 0.000000e+00
    outer loop
      vertex   4.300000e+01 -2.250000e+01 2.800000e+01
      vertex   4.300000e+01 2.550000e+01 0.000000e+00
      vertex   4.300000e+01 2.550000e+01 2.800000e+01
    endloop
  endfacet
  facet normal -1.000000e+00 0.000000e+00 0.000000e+00
    outer loop
      vertex   -4.300000e+01 2.550000e+01 0.000000e+00
      vertex   -4.300000e+01 -2.250000e+01 0.000000e+00
      vertex   -4.300000e+01 2.550000e+01 2.800000e+01
    endloop
  endfacet
  facet normal -1.000000e+00 -0.000000e+00 0.000000e+00
    outer loop
      vertex   -4.300000e+01 2.550000e+01 2.800000e+01
      vertex   -4.300000e+01 -2.250000e+01 0.000000e+00
      vertex   -4.300000e+01 -2.250000e+01 2.800000e+01
    endloop
  endfacet
  facet normal 0.000000e+00 0.000000e+00 1.000000e+00
    outer loop
      vertex   -4.300000e+01 -2.250000e+01 2.800000e+01
      vertex   4.300000e+01 -2.250000e+01 2.800000e+01
      vertex   -4.300000e+01 2.550000e+01 2.800000e+01
    endloop
  endfacet
  facet normal -0.000000e+00 0.000000e+00 1.000000e+00
    outer loop
      vertex   -4.300000e+01 2.550000e+01 2.800000e+01
      vertex   4.300000e+01 -2.250000e+01 2.800000e+01
      vertex   4.300000e+01 2.550000e+01 2.800000e+01
    endloop
  endfacet
  facet normal 0.000000e+00 0.000000e+00 -1.000000e+00
    outer loop
      vertex   -4.000000e+01 -2.250000e+01 0.000000e+00
      vertex   -4.300000e+01 -2.250000e+01 0.000000e+00
      vertex   -4.000000e+01 2.250000e+01 0.000000e+00
    endloop
  endfacet
  facet normal -0.000000e+00 0.000000e+00 -1.000000e+00
    outer loop
      vertex   -4.000000e+01 2.250000e+01 0.000000e+00
      vertex   -4.300000e+01 -2.250000e+01 0.000000e+00
      vertex   -4.300000e+01 2.550000e+01 0.000000e+00
    endloop
  endfacet
  facet normal 0.000000e+00 0.000000e+00 -1.000000e+00
    outer loop
      vertex   -4.000000e+01 2.250000e+01 0.000000e+00
      vertex   -4.300000e+01 2.550000e+01 0.000000e+00
      vertex   4.300000e+01 2.550000e+01 0.000000e+00
    endloop
  endfacet
  facet normal 0.000000e+00 0.000000e+00 -1.000000e+00
    outer loop
      vertex   -4.000000e+01 2.250000e+01 0.000000e+00
      vertex   4.300000e+01 2.550000e+01 0.000000e+00
      vertex   4.000000e+01 2.250000e+01 0.000000e+00
    endloop
  endfacet
  facet normal 0.000000e+00 0.000000e+00 -1.000000e+00
    outer loop
      vertex   4.000000e+01 2.250000e+01 0.000000e+00
      vertex   4.300000e+01 2.550000e+01 0.000000e+00
      vertex   4.300000e+01 -2.250000e+01 0.000000e+00
    endloop
  endfacet
  facet normal 0.000000e+00 0.000000e+00 -1.000000e+00
    outer loop
      vertex   4.000000e+01 2.250000e+01 0.000000e+00
      vertex   4.300000e+01 -2.250000e+01 0.000000e+00
      vertex   4.000000e+01 -2.250000e+01 0.000000e+00
    endloop
  endfacet
endsolid
