solid ASCII
  facet normal 1.000000e+00 0.000000e+00 0.000000e+00
    outer loop
      vertex   -1.050000e+01 -6.500000e+00 0.000000e+00
      vertex   -1.050000e+01 6.500000e+00 0.000000e+00
      vertex   -1.050000e+01 -6.500000e+00 3.000000e+00
    endloop
  endfacet
  facet normal 1.000000e+00 -0.000000e+00 0.000000e+00
    outer loop
      vertex   -1.050000e+01 -6.500000e+00 3.000000e+00
      vertex   -1.050000e+01 6.500000e+00 0.000000e+00
      vertex   -1.050000e+01 6.500000e+00 3.000000e+00
    endloop
  endfacet
  facet normal 0.000000e+00 1.000000e+00 -0.000000e+00
    outer loop
      vertex   1.050000e+01 -6.500000e+00 0.000000e+00
      vertex   -1.050000e+01 -6.500000e+00 0.000000e+00
      vertex   1.050000e+01 -6.500000e+00 3.000000e+00
    endloop
  endfacet
  facet normal 0.000000e+00 1.000000e+00 0.000000e+00
    outer loop
      vertex   1.050000e+01 -6.500000e+00 3.000000e+00
      vertex   -1.050000e+01 -6.500000e+00 0.000000e+00
      vertex   -1.050000e+01 -6.500000e+00 3.000000e+00
    endloop
  endfacet
  facet normal -1.000000e+00 0.000000e+00 0.000000e+00
    outer loop
      vertex   1.050000e+01 6.500000e+00 0.000000e+00
      vertex   1.050000e+01 -6.500000e+00 0.000000e+00
      vertex   1.050000e+01 6.500000e+00 3.000000e+00
    endloop
  endfacet
  facet normal -1.000000e+00 -0.000000e+00 0.000000e+00
    outer loop
      vertex   1.050000e+01 6.500000e+00 3.000000e+00
      vertex   1.050000e+01 -6.500000e+00 0.000000e+00
      vertex   1.050000e+01 -6.500000e+00 3.000000e+00
    endloop
  endfacet
  facet normal 0.000000e+00 -1.000000e+00 0.000000e+00
    outer loop
      vertex   -1.050000e+01 6.500000e+00 0.000000e+00
      vertex   1.050000e+01 6.500000e+00 0.000000e+00
      vertex   -1.050000e+01 6.500000e+00 3.000000e+00
    endloop
  endfacet
  facet normal 0.000000e+00 -1.000000e+00 0.000000e+00
    outer loop
      vertex   -1.050000e+01 6.500000e+00 3.000000e+00
      vertex   1.050000e+01 6.500000e+00 0.000000e+00
      vertex   1.050000e+01 6.500000e+00 3.000000e+00
    endloop
  endfacet
  facet normal 0.000000e+00 -1.000000e+00 0.000000e+00
    outer loop
      vertex   -1.350000e+01 -9.500000e+00 0.000000e+00
      vertex   1.350000e+01 -9.500000e+00 0.000000e+00
      vertex   -1.350000e+01 -9.500000e+00 3.000000e+00
    endloop
  endfacet
  facet normal 0.000000e+00 -1.000000e+00 0.000000e+00
    outer loop
      vertex   -1.350000e+01 -9.500000e+00 3.000000e+00
      vertex   1.350000e+01 -9.500000e+00 0.000000e+00
      vertex   1.350000e+01 -9.500000e+00 3.000000e+00
    endloop
  endfacet
  facet normal -1.000000e+00 0.000000e+00 0.000000e+00
    outer loop
      vertex   -1.350000e+01 9.500000e+00 0.000000e+00
      vertex   -1.350000e+01 -9.500000e+00 0.000000e+00
      vertex   -1.350000e+01 9.500000e+00 3.000000e+00
    endloop
  endfacet
  facet normal -1.000000e+00 -0.000000e+00 0.000000e+00
    outer loop
      vertex   -1.350000e+01 9.500000e+00 3.000000e+00
      vertex   -1.350000e+01 -9.500000e+00 0.000000e+00
      vertex   -1.350000e+01 -9.500000e+00 3.000000e+00
    endloop
  endfacet
  facet normal 0.000000e+00 1.000000e+00 -0.000000e+00
    outer loop
      vertex   1.350000e+01 9.500000e+00 0.000000e+00
      vertex   -1.350000e+01 9.500000e+00 0.000000e+00
      vertex   1.350000e+01 9.500000e+00 3.000000e+00
    endloop
  endfacet
  facet normal 0.000000e+00 1.000000e+00 0.000000e+00
    outer loop
      vertex   1.350000e+01 9.500000e+00 3.000000e+00
      vertex   -1.350000e+01 9.500000e+00 0.000000e+00
      vertex   -1.350000e+01 9.500000e+00 3.000000e+00
    endloop
  endfacet
  facet normal 1.000000e+00 0.000000e+00 -1.184238e-15
    outer loop
      vertex   1.350000e+01 -9.500000e+00 0.000000e+00
      vertex   1.350000e+01 9.500000e+00 0.000000e+00
      vertex   1.350000e+01 -9.500000e+00 3.000000e+00
    endloop
  endfacet
  facet normal 1.000000e+00 0.000000e+00 -1.184238e-15
    outer loop
      vertex   1.350000e+01 -9.500000e+00 3.000000e+00
      vertex   1.350000e+01 9.500000e+00 0.000000e+00
      vertex   1.350000e+01 9.500000e+00 3.000000e+00
    endloop
  endfacet
  facet normal 0.000000e+00 0.000000e+00 1.000000e+00
    outer loop
      vertex   1.050000e+01 6.500000e+00 3.000000e+00
      vertex   -1.350000e+01 9.500000e+00 3.000000e+00
      vertex   -1.050000e+01 6.500000e+00 3.000000e+00
    endloop
  endfacet
  facet normal 0.000000e+00 0.000000e+00 1.000000e+00
    outer loop
      vertex   -1.050000e+01 6.500000e+00 3.000000e+00
      vertex   -1.350000e+01 9.500000e+00 3.000000e+00
      vertex   -1.350000e+01 -9.500000e+00 3.000000e+00
    endloop
  endfacet
  facet normal 0.000000e+00 0.000000e+00 1.000000e+00
    outer loop
      vertex   -1.050000e+01 6.500000e+00 3.000000e+00
      vertex   -1.350000e+01 -9.500000e+00 3.000000e+00
      vertex   -1.050000e+01 -6.500000e+00 3.000000e+00
    endloop
  endfacet
  facet normal 0.000000e+00 0.000000e+00 1.000000e+00
    outer loop
      vertex   -1.050000e+01 -6.500000e+00 3.000000e+00
      vertex   -1.350000e+01 -9.500000e+00 3.000000e+00
      vertex   1.350000e+01 -9.500000e+00 3.000000e+00
    endloop
  endfacet
  facet normal -0.000000e+00 0.000000e+00 1.000000e+00
    outer loop
      vertex   -1.050000e+01 -6.500000e+00 3.000000e+00
      vertex   1.350000e+01 -9.500000e+00 3.000000e+00
      vertex   1.050000e+01 -6.500000e+00 3.000000e+00
    endloop
  endfacet
  facet normal -0.000000e+00 0.000000e+00 1.000000e+00
    outer loop
      vertex   1.050000e+01 -6.500000e+00 3.000000e+00
      vertex   1.350000e+01 -9.500000e+00 3.000000e+00
      vertex   1.050000e+01 6.500000e+00 3.000000e+00
    endloop
  endfacet
  facet normal -0.000000e+00 0.000000e+00 1.000000e+00
    outer loop
      vertex   1.050000e+01 6.500000e+00 3.000000e+00
      vertex   1.350000e+01 -9.500000e+00 3.000000e+00
      vertex   1.350000e+01 9.500000e+00 3.000000e+00
    endloop
  endfacet
  facet normal 0.000000e+00 -0.000000e+00 1.000000e+00
    outer loop
      vertex   1.050000e+01 6.500000e+00 3.000000e+00
      vertex   1.350000e+01 9.500000e+00 3.000000e+00
      vertex   -1.350000e+01 9.500000e+00 3.000000e+00
    endloop
  endfacet
  facet normal 0.000000e+00 0.000000e+00 -1.000000e+00
    outer loop
      vertex   -1.050000e+01 6.500000e+00 0.000000e+00
      vertex   1.350000e+01 9.500000e+00 0.000000e+00
      vertex   1.050000e+01 6.500000e+00 0.000000e+00
    endloop
  endfacet
  facet normal 0.000000e+00 0.000000e+00 -1.000000e+00
    outer loop
      vertex   1.050000e+01 6.500000e+00 0.000000e+00
      vertex   1.350000e+01 9.500000e+00 0.000000e+00
      vertex   1.350000e+01 -9.500000e+00 0.000000e+00
    endloop
  endfacet
  facet normal 0.000000e+00 0.000000e+00 -1.000000e+00
    outer loop
      vertex   1.050000e+01 6.500000e+00 0.000000e+00
      vertex   1.350000e+01 -9.500000e+00 0.000000e+00
      vertex   1.050000e+01 -6.500000e+00 0.000000e+00
    endloop
  endfacet
  facet normal 0.000000e+00 -0.000000e+00 -1.000000e+00
    outer loop
      vertex   1.050000e+01 -6.500000e+00 0.000000e+00
      vertex   1.350000e+01 -9.500000e+00 0.000000e+00
      vertex   -1.350000e+01 -9.500000e+00 0.000000e+00
    endloop
  endfacet
  facet normal -0.000000e+00 0.000000e+00 -1.000000e+00
    outer loop
      vertex   1.050000e+01 -6.500000e+00 0.000000e+00
      vertex   -1.350000e+01 -9.500000e+00 0.000000e+00
      vertex   -1.050000e+01 -6.500000e+00 0.000000e+00
    endloop
  endfacet
  facet normal -0.000000e+00 0.000000e+00 -1.000000e+00
    outer loop
      vertex   -1.050000e+01 -6.500000e+00 0.000000e+00
      vertex   -1.350000e+01 -9.500000e+00 0.000000e+00
      vertex   -1.050000e+01 6.500000e+00 0.000000e+00
    endloop
  endfacet
  facet normal -0.000000e+00 0.000000e+00 -1.000000e+00
    outer loop
      vertex   -1.050000e+01 6.500000e+00 0.000000e+00
      vertex   -1.350000e+01 -9.500000e+00 0.000000e+00
      vertex   -1.350000e+01 9.500000e+00 0.000000e+00
    endloop
  endfacet
  facet normal 0.000000e+00 0.000000e+00 -1.000000e+00
    outer loop
      vertex   -1.050000e+01 6.500000e+00 0.000000e+00
      vertex   -1.350000e+01 9.500000e+00 0.000000e+00
      vertex   1.350000e+01 9.500000e+00 0.000000e+00
    endloop
  endfacet
endsolid
